[ConversionWorker] Logging FFmpeg output to: ffmpeg_logs\ffmpeg_conversion_t_wav_20250525_151402.log\n[ConversionWorker] Getting duration with command: ffprobe -v error -show_entries format=duration -of default=noprint_wrappers=1:nokey=1 Z:\AAAAA01\t.wav\n[ConversionWorker] Duration for t.wav: 11418446 ms\n[ConversionWorker] Starting FFmpeg for t.wav: ffmpeg -i Z:\AAAAA01\t.wav -b:a 256k -vn -y -loglevel error -stats -progress pipe:1 Z:\AAAAA01\t.mp3\n[ConversionWorker] FFmpeg process started. PID: 13972\n[STDOUT RAW] bitrate= 154.0kbits/s\n[STDOUT RAW] total_size=85964\n[STDOUT RAW] out_time_us=4465958\n[STDOUT RAW] out_time_ms=4465958\n[STDOUT RAW] out_time=00:00:04.465958\n[STDOUT RAW] dup_frames=0\n[STDOUT RAW] drop_frames=0\n[STDOUT RAW] speed=8.58x\n[STDOUT RAW] progress=continue\n[STDERR RAW] size=      84KiB time=00:00:04.46 bitrate= 154.0kbits/s speed=8.58x\n[STDOUT RAW] bitrate= 157.1kbits/s\n[STDOUT RAW] total_size=179084\n[STDOUT RAW] out_time_us=9121958\n[STDOUT RAW] out_time_ms=9121958\n[STDOUT RAW] out_time=00:00:09.121958\n[STDOUT RAW] dup_frames=0\n[STDOUT RAW] drop_frames=0\n[STDOUT RAW] speed=8.76x\n[STDOUT RAW] progress=continue\n[STDERR RAW] size=     175KiB time=00:00:09.12 bitrate= 157.1kbits/s speed=8.76x\n[STDOUT RAW] bitrate=  79.6kbits/s\n[STDOUT RAW] total_size=262144\n[STDOUT RAW] out_time_us=26353958\n[STDOUT RAW] out_time_ms=26353958\n[STDOUT RAW] out_time=00:00:26.353958\n[STDOUT RAW] dup_frames=0\n[STDOUT RAW] drop_frames=0\n[STDOUT RAW] speed=  17x\n[STDOUT RAW] progress=continue\n[STDERR RAW] size=     256KiB time=00:00:26.35 bitrate=  79.6kbits/s speed=  17x\n[STDOUT RAW] bitrate= 159.5kbits/s\n[STDOUT RAW] total_size=2883584\n[STDOUT RAW] out_time_us=144601958\n[STDOUT RAW] out_time_ms=144601958\n[STDOUT RAW] out_time=00:02:24.601958\n[STDOUT RAW] dup_frames=0\n[STDOUT RAW] drop_frames=0\n[STDOUT RAW] speed=69.7x\n[STDOUT RAW] progress=continue\n[STDERR RAW] size=    2816KiB time=00:02:24.60 bitrate= 159.5kbits/s speed=69.7x\n[STDOUT RAW] bitrate= 157.9kbits/s\n[STDOUT RAW] total_size=5505024\n[STDOUT RAW] out_time_us=278905958\n[STDOUT RAW] out_time_ms=278905958\n[STDOUT RAW] out_time=00:04:38.905958\n[STDOUT RAW] dup_frames=0\n[STDOUT RAW] drop_frames=0\n[STDOUT RAW] speed= 107x\n[STDOUT RAW] progress=continue\n[STDERR RAW] size=    5376KiB time=00:04:38.90 bitrate= 157.9kbits/s speed= 107x\n[STDOUT RAW] bitrate= 156.1kbits/s\n[STDOUT RAW] total_size=7864320\n[STDOUT RAW] out_time_us=403057958\n[STDOUT RAW] out_time_ms=403057958\n[STDOUT RAW] out_time=00:06:43.057958\n[STDOUT RAW] dup_frames=0\n[STDOUT RAW] drop_frames=0\n[STDOUT RAW] speed= 130x\n[STDOUT RAW] progress=continue\n[STDERR RAW] size=    7680KiB time=00:06:43.05 bitrate= 156.1kbits/s speed= 130x\n[STDOUT RAW] bitrate= 156.1kbits/s\n[STDOUT RAW] total_size=10485760\n[STDOUT RAW] out_time_us=537529958\n[STDOUT RAW] out_time_ms=537529958\n[STDOUT RAW] out_time=00:08:57.529958\n[STDOUT RAW] dup_frames=0\n[STDOUT RAW] drop_frames=0\n[STDOUT RAW] speed= 148x\n[STDOUT RAW] progress=continue\n[STDERR RAW] size=   10240KiB time=00:08:57.52 bitrate= 156.1kbits/s speed= 148x\n[STDOUT RAW] bitrate= 156.9kbits/s\n[STDOUT RAW] total_size=13107200\n[STDOUT RAW] out_time_us=668113958\n[STDOUT RAW] out_time_ms=668113958\n[STDOUT RAW] out_time=00:11:08.113958\n[STDOUT RAW] dup_frames=0\n[STDOUT RAW] drop_frames=0\n[STDOUT RAW] speed= 161x\n[STDOUT RAW] progress=continue\n[STDERR RAW] size=   12800KiB time=00:11:08.11 bitrate= 156.9kbits/s speed= 161x\n[STDOUT RAW] bitrate= 158.5kbits/s\n[STDOUT RAW] total_size=15990784\n[STDOUT RAW] out_time_us=807289958\n[STDOUT RAW] out_time_ms=807289958\n[STDOUT RAW] out_time=00:13:27.289958\n[STDOUT RAW] dup_frames=0\n[STDOUT RAW] drop_frames=0\n[STDOUT RAW] speed= 173x\n[STDOUT RAW] progress=continue\n[STDERR RAW] size=   15616KiB time=00:13:27.28 bitrate= 158.5kbits/s speed= 173x\n[STDOUT RAW] bitrate= 160.0kbits/s\n[STDOUT RAW] total_size=18874368\n[STDOUT RAW] out_time_us=943969958\n[STDOUT RAW] out_time_ms=943969958\n[STDOUT RAW] out_time=00:15:43.969958\n[STDOUT RAW] dup_frames=0\n[STDOUT RAW] drop_frames=0\n[STDOUT RAW] speed= 182x\n[STDOUT RAW] progress=continue\n[STDERR RAW] size=   18432KiB time=00:15:43.96 bitrate= 160.0kbits/s speed= 182x\n[STDOUT RAW] bitrate= 158.7kbits/s\n[STDOUT RAW] total_size=21233664\n[STDOUT RAW] out_time_us=1070641958\n[STDOUT RAW] out_time_ms=1070641958\n[STDOUT RAW] out_time=00:17:50.641958\n[STDOUT RAW] dup_frames=0\n[STDOUT RAW] drop_frames=0\n[STDOUT RAW] speed= 188x\n[STDOUT RAW] progress=continue\n[STDERR RAW] size=   20736KiB time=00:17:50.64 bitrate= 158.7kbits/s speed= 188x\n[STDOUT RAW] bitrate= 158.5kbits/s\n[STDOUT RAW] total_size=23855104\n[STDOUT RAW] out_time_us=1203841958\n[STDOUT RAW] out_time_ms=1203841958\n[STDOUT RAW] out_time=00:20:03.841958\n[STDOUT RAW] dup_frames=0\n[STDOUT RAW] drop_frames=0\n[STDOUT RAW] speed= 193x\n[STDOUT RAW] progress=continue\n[STDOUT RAW] bitrate= 158.7kbits/s\n[STDERR RAW] size=   23296KiB time=00:20:03.84 bitrate= 158.5kbits/s speed= 193x\n[STDOUT RAW] total_size=26476544\n[STDOUT RAW] out_time_us=1334761958\n[STDOUT RAW] out_time_ms=1334761958\n[STDOUT RAW] out_time=00:22:14.761958\n[STDOUT RAW] dup_frames=0\n[STDOUT RAW] drop_frames=0\n[STDOUT RAW] speed= 198x\n[STDOUT RAW] progress=continue\n[STDERR RAW] size=   25856KiB time=00:22:14.76 bitrate= 158.7kbits/s speed= 198x\n[STDOUT RAW] bitrate= 159.5kbits/s\n[STDOUT RAW] total_size=29097984\n[STDOUT RAW] out_time_us=1459009958\n[STDOUT RAW] out_time_ms=1459009958\n[STDOUT RAW] out_time=00:24:19.009958\n[STDOUT RAW] dup_frames=0\n[STDOUT RAW] drop_frames=0\n[STDOUT RAW] speed= 201x\n[STDOUT RAW] progress=continue\n[STDERR RAW] size=   28416KiB time=00:24:19.00 bitrate= 159.5kbits/s speed= 201x\n[STDOUT RAW] bitrate= 158.8kbits/s\n[STDOUT RAW] total_size=31719424\n[STDOUT RAW] out_time_us=1597513958\n[STDOUT RAW] out_time_ms=1597513958\n[STDOUT RAW] out_time=00:26:37.513958\n[STDOUT RAW] dup_frames=0\n[STDOUT RAW] drop_frames=0\n[STDOUT RAW] speed= 206x\n[STDOUT RAW] progress=continue\n[STDERR RAW] size=   30976KiB time=00:26:37.51 bitrate= 158.8kbits/s speed= 206x\n[STDOUT RAW] bitrate= 159.9kbits/s\n[STDOUT RAW] total_size=34340864\n[STDOUT RAW] out_time_us=1717609958\n[STDOUT RAW] out_time_ms=1717609958\n[STDOUT RAW] out_time=00:28:37.609958\n[STDOUT RAW] dup_frames=0\n[STDOUT RAW] drop_frames=0\n[STDOUT RAW] speed= 207x\n[STDOUT RAW] progress=continue\n[STDERR RAW] size=   33536KiB time=00:28:37.60 bitrate= 159.9kbits/s speed= 207x\n[STDOUT RAW] bitrate= 158.9kbits/s\n[STDOUT RAW] total_size=36700160\n[STDOUT RAW] out_time_us=1848241958\n[STDOUT RAW] out_time_ms=1848241958\n[STDOUT RAW] out_time=00:30:48.241958\n[STDOUT RAW] dup_frames=0\n[STDOUT RAW] drop_frames=0\n[STDOUT RAW] speed= 210x\n[STDOUT RAW] progress=continue\n[STDERR RAW] size=   35840KiB time=00:30:48.24 bitrate= 158.9kbits/s speed= 210x\n[STDOUT RAW] bitrate= 159.0kbits/s\n[STDOUT RAW] total_size=39321600\n[STDOUT RAW] out_time_us=1977985958\n[STDOUT RAW] out_time_ms=1977985958\n[STDOUT RAW] out_time=00:32:57.985958\n[STDOUT RAW] dup_frames=0\n[STDOUT RAW] drop_frames=0\n[STDOUT RAW] speed= 212x\n[STDOUT RAW] progress=continue\n[STDERR RAW] size=   38400KiB time=00:32:57.98 bitrate= 159.0kbits/s speed= 212x\n[STDOUT RAW] bitrate= 159.7kbits/s\n[STDOUT RAW] total_size=41943040\n[STDOUT RAW] out_time_us=2100673958\n[STDOUT RAW] out_time_ms=2100673958\n[STDOUT RAW] out_time=00:35:00.673958\n[STDOUT RAW] dup_frames=0\n[STDOUT RAW] drop_frames=0\n[STDOUT RAW] speed= 214x\n[STDOUT RAW] progress=continue\n[STDERR RAW] size=   40960KiB time=00:35:00.67 bitrate= 159.7kbits/s speed= 214x\n[STDOUT RAW] bitrate= 159.0kbits/s\n[STDOUT RAW] total_size=44302336\n[STDOUT RAW] out_time_us=2228353958\n[STDOUT RAW] out_time_ms=2228353958\n[STDOUT RAW] out_time=00:37:08.353958\n[STDOUT RAW] dup_frames=0\n[STDOUT RAW] drop_frames=0\n[STDOUT RAW] speed= 215x\n[STDOUT RAW] progress=continue\n[STDERR RAW] size=   43264KiB time=00:37:08.35 bitrate= 159.0kbits/s speed= 215x\n[STDOUT RAW] bitrate= 159.1kbits/s\n[STDOUT RAW] total_size=46923776\n[STDOUT RAW] out_time_us=2359417958\n[STDOUT RAW] out_time_ms=2359417958\n[STDOUT RAW] out_time=00:39:19.417958\n[STDOUT RAW] dup_frames=0\n[STDOUT RAW] drop_frames=0\n[STDOUT RAW] speed= 217x\n[STDOUT RAW] progress=continue\n[STDERR RAW] size=   45824KiB time=00:39:19.41 bitrate= 159.1kbits/s speed= 217x\n[STDOUT RAW] bitrate= 159.7kbits/s\n[STDOUT RAW] total_size=49545216\n[STDOUT RAW] out_time_us=2481361958\n[STDOUT RAW] out_time_ms=2481361958\n[STDOUT RAW] out_time=00:41:21.361958\n[STDOUT RAW] dup_frames=0\n[STDOUT RAW] drop_frames=0\n[STDOUT RAW] speed= 218x\n[STDOUT RAW] progress=continue\n[STDERR RAW] size=   48384KiB time=00:41:21.36 bitrate= 159.7kbits/s speed= 218x\n[STDOUT RAW] bitrate= 159.7kbits/s\n[STDOUT RAW] total_size=52166656\n[STDOUT RAW] out_time_us=2614009958\n[STDOUT RAW] out_time_ms=2614009958\n[STDOUT RAW] out_time=00:43:34.009958\n[STDOUT RAW] dup_frames=0\n[STDOUT RAW] drop_frames=0\n[STDOUT RAW] speed= 220x\n[STDOUT RAW] progress=continue\n[STDERR RAW] size=   50944KiB time=00:43:34.00 bitrate= 159.7kbits/s speed= 220x\n[STDOUT RAW] bitrate= 159.5kbits/s\n[STDOUT RAW] total_size=54525952\n[STDOUT RAW] out_time_us=2735209958\n[STDOUT RAW] out_time_ms=2735209958\n[STDOUT RAW] out_time=00:45:35.209958\n[STDOUT RAW] dup_frames=0\n[STDOUT RAW] drop_frames=0\n[STDOUT RAW] speed= 220x\n[STDOUT RAW] progress=continue\n[STDERR RAW] size=   53248KiB time=00:45:35.20 bitrate= 159.5kbits/s speed= 220x\n[STDOUT RAW] bitrate= 159.8kbits/s\n[STDOUT RAW] total_size=57147392\n[STDOUT RAW] out_time_us=2861089958\n[STDOUT RAW] out_time_ms=2861089958\n[STDOUT RAW] out_time=00:47:41.089958\n[STDOUT RAW] dup_frames=0\n[STDOUT RAW] drop_frames=0\n[STDOUT RAW] speed= 221x\n[STDOUT RAW] progress=continue\n[STDOUT RAW] bitrate= 159.7kbits/s\n[STDERR RAW] size=   55808KiB time=00:47:41.08 bitrate= 159.8kbits/s speed= 221x\n[STDOUT RAW] total_size=59506688\n[STDOUT RAW] out_time_us=2981257958\n[STDOUT RAW] out_time_ms=2981257958\n[STDOUT RAW] out_time=00:49:41.257958\n[STDOUT RAW] dup_frames=0\n[STDOUT RAW] drop_frames=0\n[STDOUT RAW] speed= 222x\n[STDOUT RAW] progress=continue\n[STDERR RAW] size=   58112KiB time=00:49:41.25 bitrate= 159.7kbits/s speed= 222x\n[STDOUT RAW] bitrate= 159.7kbits/s\n[STDOUT RAW] total_size=62128128\n[STDOUT RAW] out_time_us=3112489958\n[STDOUT RAW] out_time_ms=3112489958\n[STDOUT RAW] out_time=00:51:52.489958\n[STDOUT RAW] dup_frames=0\n[STDOUT RAW] drop_frames=0\n[STDOUT RAW] speed= 223x\n[STDOUT RAW] progress=continue\n[STDERR RAW] size=   60672KiB time=00:51:52.48 bitrate= 159.7kbits/s speed= 223x\n[STDOUT RAW] bitrate= 159.7kbits/s\n[STDOUT RAW] total_size=64487424\n[STDOUT RAW] out_time_us=3231121958\n[STDOUT RAW] out_time_ms=3231121958\n[STDOUT RAW] out_time=00:53:51.121958\n[STDOUT RAW] dup_frames=0\n[STDOUT RAW] drop_frames=0\n[STDOUT RAW] speed= 223x\n[STDOUT RAW] progress=continue\n[STDERR RAW] size=   62976KiB time=00:53:51.12 bitrate= 159.7kbits/s speed= 223x\n[STDOUT RAW] bitrate= 160.0kbits/s\n[STDOUT RAW] total_size=67108864\n[STDOUT RAW] out_time_us=3356161958\n[STDOUT RAW] out_time_ms=3356161958\n[STDOUT RAW] out_time=00:55:56.161958\n[STDOUT RAW] dup_frames=0\n[STDOUT RAW] drop_frames=0\n[STDOUT RAW] speed= 224x\n[STDOUT RAW] progress=continue\n[STDERR RAW] size=   65536KiB time=00:55:56.16 bitrate= 160.0kbits/s speed= 224x\n[STDOUT RAW] bitrate= 159.4kbits/s\n[STDOUT RAW] total_size=69468160\n[STDOUT RAW] out_time_us=3486649958\n[STDOUT RAW] out_time_ms=3486649958\n[STDOUT RAW] out_time=00:58:06.649958\n[STDOUT RAW] dup_frames=0\n[STDOUT RAW] drop_frames=0\n[STDOUT RAW] speed= 225x\n[STDOUT RAW] progress=continue\n[STDERR RAW] size=   67840KiB time=00:58:06.64 bitrate= 159.4kbits/s speed= 225x\n[STDOUT RAW] bitrate= 159.6kbits/s\n[STDOUT RAW] total_size=72089600\n[STDOUT RAW] out_time_us=3612745958\n[STDOUT RAW] out_time_ms=3612745958\n[STDOUT RAW] out_time=01:00:12.745958\n[STDOUT RAW] dup_frames=0\n[STDOUT RAW] drop_frames=0\n[STDOUT RAW] speed= 225x\n[STDOUT RAW] progress=continue\n[STDERR RAW] size=   70400KiB time=01:00:12.74 bitrate= 159.6kbits/s speed= 225x\n[STDOUT RAW] bitrate= 159.5kbits/s\n[STDOUT RAW] total_size=74448896\n[STDOUT RAW] out_time_us=3733993958\n[STDOUT RAW] out_time_ms=3733993958\n[STDOUT RAW] out_time=01:02:13.993958\n[STDOUT RAW] dup_frames=0\n[STDOUT RAW] drop_frames=0\n[STDOUT RAW] speed= 226x\n[STDOUT RAW] progress=continue\n[STDERR RAW] size=   72704KiB time=01:02:13.99 bitrate= 159.5kbits/s speed= 226x\n[STDOUT RAW] bitrate= 159.9kbits/s\n[STDOUT RAW] total_size=76808192\n[STDOUT RAW] out_time_us=3842497958\n[STDOUT RAW] out_time_ms=3842497958\n[STDOUT RAW] out_time=01:04:02.497958\n[STDOUT RAW] dup_frames=0\n[STDOUT RAW] drop_frames=0\n[STDOUT RAW] speed= 225x\n[STDOUT RAW] progress=continue\n[STDERR RAW] size=   75008KiB time=01:04:02.49 bitrate= 159.9kbits/s speed= 225x\n[STDOUT RAW] bitrate= 160.0kbits/s\n[STDOUT RAW] total_size=79429632\n[STDOUT RAW] out_time_us=3971737958\n[STDOUT RAW] out_time_ms=3971737958\n[STDOUT RAW] out_time=01:06:11.737958\n[STDOUT RAW] dup_frames=0\n[STDOUT RAW] drop_frames=0\n[STDOUT RAW] speed= 226x\n[STDOUT RAW] progress=continue\n[STDERR RAW] size=   77568KiB time=01:06:11.73 bitrate= 160.0kbits/s speed= 226x\n[STDOUT RAW] bitrate= 159.5kbits/s\n[STDOUT RAW] total_size=81526784\n[STDOUT RAW] out_time_us=4088665958\n[STDOUT RAW] out_time_ms=4088665958\n[STDOUT RAW] out_time=01:08:08.665958\n[STDOUT RAW] dup_frames=0\n[STDOUT RAW] drop_frames=0\n[STDOUT RAW] speed= 226x\n[STDOUT RAW] progress=continue\n[STDERR RAW] size=   79616KiB time=01:08:08.66 bitrate= 159.5kbits/s speed= 226x\n[STDOUT RAW] bitrate= 159.5kbits/s\n[STDOUT RAW] total_size=83886080\n[STDOUT RAW] out_time_us=4207537958\n[STDOUT RAW] out_time_ms=4207537958\n[STDOUT RAW] out_time=01:10:07.537958\n[STDOUT RAW] dup_frames=0\n[STDOUT RAW] drop_frames=0\n[STDOUT RAW] speed= 226x\n[STDOUT RAW] progress=continue\n[STDOUT RAW] bitrate= 159.5kbits/s\n[STDOUT RAW] total_size=86245376\n[STDOUT RAW] out_time_us=4325497958\n[STDOUT RAW] out_time_ms=4325497958\n[STDOUT RAW] out_time=01:12:05.497958\n[STDOUT RAW] dup_frames=0\n[STDOUT RAW] drop_frames=0\n[STDOUT RAW] speed= 226x\n[STDOUT RAW] progress=continue\n[STDERR RAW] size=   81920KiB time=01:10:07.53 bitrate= 159.5kbits/s speed= 226x\n[STDERR RAW] size=   84224KiB time=01:12:05.49 bitrate= 159.5kbits/s speed= 226x\n[STDOUT RAW] bitrate= 159.5kbits/s\n[STDOUT RAW] total_size=88866816\n[STDOUT RAW] out_time_us=4456585958\n[STDOUT RAW] out_time_ms=4456585958\n[STDOUT RAW] out_time=01:14:16.585958\n[STDOUT RAW] dup_frames=0\n[STDOUT RAW] drop_frames=0\n[STDOUT RAW] speed= 227x\n[STDOUT RAW] progress=continue\n[STDERR RAW] size=   86784KiB time=01:14:16.58 bitrate= 159.5kbits/s speed= 227x\n[STDOUT RAW] bitrate= 159.6kbits/s\n[STDOUT RAW] total_size=91488256\n[STDOUT RAW] out_time_us=4586881958\n[STDOUT RAW] out_time_ms=4586881958\n[STDOUT RAW] out_time=01:16:26.881958\n[STDOUT RAW] dup_frames=0\n[STDOUT RAW] drop_frames=0\n[STDOUT RAW] speed= 228x\n[STDOUT RAW] progress=continue\n[STDERR RAW] size=   89344KiB time=01:16:26.88 bitrate= 159.6kbits/s speed= 228x\n[STDOUT RAW] bitrate= 159.9kbits/s\n[STDOUT RAW] total_size=94109696\n[STDOUT RAW] out_time_us=4709593958\n[STDOUT RAW] out_time_ms=4709593958\n[STDOUT RAW] out_time=01:18:29.593958\n[STDOUT RAW] dup_frames=0\n[STDOUT RAW] drop_frames=0\n[STDOUT RAW] speed= 228x\n[STDOUT RAW] progress=continue\n[STDERR RAW] size=   91904KiB time=01:18:29.59 bitrate= 159.9kbits/s speed= 228x\n[STDOUT RAW] bitrate= 159.9kbits/s\n[STDOUT RAW] total_size=96731136\n[STDOUT RAW] out_time_us=4839481958\n[STDOUT RAW] out_time_ms=4839481958\n[STDOUT RAW] out_time=01:20:39.481958\n[STDOUT RAW] dup_frames=0\n[STDOUT RAW] drop_frames=0\n[STDOUT RAW] speed= 229x\n[STDOUT RAW] progress=continue\n[STDOUT RAW] bitrate= 159.9kbits/s\n[STDERR RAW] size=   94464KiB time=01:20:39.48 bitrate= 159.9kbits/s speed= 229x\n[STDOUT RAW] total_size=99090432\n[STDOUT RAW] out_time_us=4959145958\n[STDOUT RAW] out_time_ms=4959145958\n[STDOUT RAW] out_time=01:22:39.145958\n[STDOUT RAW] dup_frames=0\n[STDOUT RAW] drop_frames=0\n[STDOUT RAW] speed= 229x\n[STDOUT RAW] progress=continue\n[STDERR RAW] size=   96768KiB time=01:22:39.14 bitrate= 159.9kbits/s speed= 229x\n[STDOUT RAW] bitrate= 159.6kbits/s\n[STDOUT RAW] total_size=101449728\n[STDOUT RAW] out_time_us=5085721958\n[STDOUT RAW] out_time_ms=5085721958\n[STDOUT RAW] out_time=01:24:45.721958\n[STDOUT RAW] dup_frames=0\n[STDOUT RAW] drop_frames=0\n[STDOUT RAW] speed= 229x\n[STDOUT RAW] progress=continue\n[STDERR RAW] size=   99072KiB time=01:24:45.72 bitrate= 159.6kbits/s speed= 229x\n[STDOUT RAW] bitrate= 159.8kbits/s\n[STDOUT RAW] total_size=103809024\n[STDOUT RAW] out_time_us=5198065958\n[STDOUT RAW] out_time_ms=5198065958\n[STDOUT RAW] out_time=01:26:38.065958\n[STDOUT RAW] dup_frames=0\n[STDOUT RAW] drop_frames=0\n[STDOUT RAW] speed= 229x\n[STDOUT RAW] progress=continue\n[STDERR RAW] size=  101376KiB time=01:26:38.06 bitrate= 159.8kbits/s speed= 229x\n[STDOUT RAW] bitrate= 159.8kbits/s\n[STDOUT RAW] total_size=106430464\n[STDOUT RAW] out_time_us=5327953958\n[STDOUT RAW] out_time_ms=5327953958\n[STDOUT RAW] out_time=01:28:47.953958\n[STDOUT RAW] dup_frames=0\n[STDOUT RAW] drop_frames=0\n[STDOUT RAW] speed= 229x\n[STDOUT RAW] progress=continue\n[STDERR RAW] size=  103936KiB time=01:28:47.95 bitrate= 159.8kbits/s speed= 229x\n[STDOUT RAW] bitrate= 159.9kbits/s\n[STDOUT RAW] total_size=108789760\n[STDOUT RAW] out_time_us=5442289958\n[STDOUT RAW] out_time_ms=5442289958\n[STDOUT RAW] out_time=01:30:42.289958\n[STDOUT RAW] dup_frames=0\n[STDOUT RAW] drop_frames=0\n[STDOUT RAW] speed= 229x\n[STDOUT RAW] progress=continue\n[STDERR RAW] size=  106240KiB time=01:30:42.28 bitrate= 159.9kbits/s speed= 229x\n[STDOUT RAW] bitrate= 159.7kbits/s\n[STDOUT RAW] total_size=111149056\n[STDOUT RAW] out_time_us=5568841958\n[STDOUT RAW] out_time_ms=5568841958\n[STDOUT RAW] out_time=01:32:48.841958\n[STDOUT RAW] dup_frames=0\n[STDOUT RAW] drop_frames=0\n[STDOUT RAW] speed= 229x\n[STDOUT RAW] progress=continue\n[STDERR RAW] size=  108544KiB time=01:32:48.84 bitrate= 159.7kbits/s speed= 229x\n[STDOUT RAW] bitrate= 159.9kbits/s\n[STDOUT RAW] total_size=113770496\n[STDOUT RAW] out_time_us=5692225958\n[STDOUT RAW] out_time_ms=5692225958\n[STDOUT RAW] out_time=01:34:52.225958\n[STDOUT RAW] dup_frames=0\n[STDOUT RAW] drop_frames=0\n[STDOUT RAW] speed= 230x\n[STDOUT RAW] progress=continue\n[STDOUT RAW] bitrate= 159.7kbits/s\n[STDOUT RAW] total_size=116129792\n[STDOUT RAW] out_time_us=5816353958\n[STDOUT RAW] out_time_ms=5816353958\n[STDERR RAW] size=  111104KiB time=01:34:52.22 bitrate= 159.9kbits/s speed= 230x\n[STDOUT RAW] out_time=01:36:56.353958\n[STDOUT RAW] dup_frames=0\n[STDOUT RAW] drop_frames=0\n[STDOUT RAW] speed= 230x\n[STDOUT RAW] progress=continue\n[STDERR RAW] size=  113408KiB time=01:36:56.35 bitrate= 159.7kbits/s speed= 230x\n[STDOUT RAW] bitrate= 159.7kbits/s\n[STDOUT RAW] total_size=118226944\n[STDOUT RAW] out_time_us=5922217958\n[STDOUT RAW] out_time_ms=5922217958\n[STDOUT RAW] out_time=01:38:42.217958\n[STDOUT RAW] dup_frames=0\n[STDOUT RAW] drop_frames=0\n[STDOUT RAW] speed= 229x\n[STDOUT RAW] progress=continue\n[STDERR RAW] size=  115456KiB time=01:38:42.21 bitrate= 159.7kbits/s speed= 229x\n[STDOUT RAW] bitrate= 159.6kbits/s\n[STDOUT RAW] total_size=120061952\n[STDOUT RAW] out_time_us=6016345958\n[STDOUT RAW] out_time_ms=6016345958\n[STDOUT RAW] out_time=01:40:16.345958\n[STDOUT RAW] dup_frames=0\n[STDOUT RAW] drop_frames=0\n[STDOUT RAW] speed= 229x\n[STDOUT RAW] progress=continue\n[STDERR RAW] size=  117248KiB time=01:40:16.34 bitrate= 159.6kbits/s speed= 229x\n[STDOUT RAW] bitrate= 159.7kbits/s\n[STDOUT RAW] total_size=122421248\n[STDOUT RAW] out_time_us=6134305958\n[STDOUT RAW] out_time_ms=6134305958\n[STDOUT RAW] out_time=01:42:14.305958\n[STDOUT RAW] dup_frames=0\n[STDOUT RAW] drop_frames=0\n[STDOUT RAW] speed= 228x\n[STDOUT RAW] progress=continue\n[STDERR RAW] size=  119552KiB time=01:42:14.30 bitrate= 159.7kbits/s speed= 228x\n[STDOUT RAW] bitrate= 159.7kbits/s\n[STDOUT RAW] total_size=124518400\n[STDOUT RAW] out_time_us=6239161958\n[STDOUT RAW] out_time_ms=6239161958\n[STDOUT RAW] out_time=01:43:59.161958\n[STDOUT RAW] dup_frames=0\n[STDOUT RAW] drop_frames=0\n[STDOUT RAW] speed= 228x\n[STDOUT RAW] progress=continue\n[STDERR RAW] size=  121600KiB time=01:43:59.16 bitrate= 159.7kbits/s speed= 228x\n[STDOUT RAW] bitrate= 159.7kbits/s\n[STDOUT RAW] total_size=126353408\n[STDOUT RAW] out_time_us=6330913958\n[STDOUT RAW] out_time_ms=6330913958\n[STDOUT RAW] out_time=01:45:30.913958\n[STDOUT RAW] dup_frames=0\n[STDOUT RAW] drop_frames=0\n[STDOUT RAW] speed= 227x\n[STDOUT RAW] progress=continue\n[STDERR RAW] size=  123392KiB time=01:45:30.91 bitrate= 159.7kbits/s speed= 227x\n[STDOUT RAW] bitrate= 159.7kbits/s\n[STDOUT RAW] total_size=128450560\n[STDOUT RAW] out_time_us=6435769958\n[STDOUT RAW] out_time_ms=6435769958\n[STDOUT RAW] out_time=01:47:15.769958\n[STDOUT RAW] dup_frames=0\n[STDOUT RAW] drop_frames=0\n[STDOUT RAW] speed= 227x\n[STDOUT RAW] progress=continue\n[STDERR RAW] size=  125440KiB time=01:47:15.76 bitrate= 159.7kbits/s speed= 227x\n[STDOUT RAW] bitrate= 159.8kbits/s\n[STDOUT RAW] total_size=130285568\n[STDOUT RAW] out_time_us=6522121958\n[STDOUT RAW] out_time_ms=6522121958\n[STDOUT RAW] out_time=01:48:42.121958\n[STDOUT RAW] dup_frames=0\n[STDOUT RAW] drop_frames=0\n[STDOUT RAW] speed= 226x\n[STDOUT RAW] progress=continue\n[STDERR RAW] size=  127232KiB time=01:48:42.12 bitrate= 159.8kbits/s speed= 226x\n[STDOUT RAW] bitrate= 159.7kbits/s\n[STDOUT RAW] total_size=131858432\n[STDOUT RAW] out_time_us=6605929958\n[STDOUT RAW] out_time_ms=6605929958\n[STDOUT RAW] out_time=01:50:05.929958\n[STDOUT RAW] dup_frames=0\n[STDOUT RAW] drop_frames=0\n[STDOUT RAW] speed= 224x\n[STDOUT RAW] progress=continue\n[STDERR RAW] size=  128768KiB time=01:50:05.92 bitrate= 159.7kbits/s speed= 224x\n[STDOUT RAW] bitrate= 159.9kbits/s\n[STDOUT RAW] total_size=133955584\n[STDOUT RAW] out_time_us=6701401958\n[STDOUT RAW] out_time_ms=6701401958\n[STDOUT RAW] out_time=01:51:41.401958\n[STDOUT RAW] dup_frames=0\n[STDOUT RAW] drop_frames=0\n[STDOUT RAW] speed= 224x\n[STDOUT RAW] progress=continue\n[STDERR RAW] size=  130816KiB time=01:51:41.40 bitrate= 159.9kbits/s speed= 224x\n[STDOUT RAW] bitrate= 159.7kbits/s\n[STDOUT RAW] total_size=135528448\n[STDOUT RAW] out_time_us=6789649958\n[STDOUT RAW] out_time_ms=6789649958\n[STDOUT RAW] out_time=01:53:09.649958\n[STDOUT RAW] dup_frames=0\n[STDOUT RAW] drop_frames=0\n[STDOUT RAW] speed= 223x\n[STDOUT RAW] progress=continue\n[STDERR RAW] size=  132352KiB time=01:53:09.64 bitrate= 159.7kbits/s speed= 223x\n[STDOUT RAW] bitrate= 159.9kbits/s\n[STDOUT RAW] total_size=137625600\n[STDOUT RAW] out_time_us=6884737958\n[STDOUT RAW] out_time_ms=6884737958\n[STDOUT RAW] out_time=01:54:44.737958\n[STDOUT RAW] dup_frames=0\n[STDOUT RAW] drop_frames=0\n[STDOUT RAW] speed= 222x\n[STDOUT RAW] progress=continue\n[STDERR RAW] size=  134400KiB time=01:54:44.73 bitrate= 159.9kbits/s speed= 222x\n[STDOUT RAW] bitrate= 159.7kbits/s\n[STDOUT RAW] total_size=139460608\n[STDOUT RAW] out_time_us=6986233958\n[STDOUT RAW] out_time_ms=6986233958\n[STDOUT RAW] out_time=01:56:26.233958\n[STDOUT RAW] dup_frames=0\n[STDOUT RAW] drop_frames=0\n[STDOUT RAW] speed= 222x\n[STDOUT RAW] progress=continue\n[STDERR RAW] size=  136192KiB time=01:56:26.23 bitrate= 159.7kbits/s speed= 222x\n[STDOUT RAW] bitrate= 159.7kbits/s\n[STDOUT RAW] total_size=141819904\n[STDOUT RAW] out_time_us=7104241958\n[STDOUT RAW] out_time_ms=7104241958\n[STDOUT RAW] out_time=01:58:24.241958\n[STDOUT RAW] dup_frames=0\n[STDOUT RAW] drop_frames=0\n[STDOUT RAW] speed= 222x\n[STDOUT RAW] progress=continue\n[STDERR RAW] size=  138496KiB time=01:58:24.24 bitrate= 159.7kbits/s speed= 222x\n[STDOUT RAW] bitrate= 159.7kbits/s\n[STDOUT RAW] total_size=143917056\n[STDOUT RAW] out_time_us=7209097958\n[STDOUT RAW] out_time_ms=7209097958\n[STDOUT RAW] out_time=02:00:09.097958\n[STDOUT RAW] dup_frames=0\n[STDOUT RAW] drop_frames=0\n[STDOUT RAW] speed= 222x\n[STDOUT RAW] progress=continue\n[STDERR RAW] size=  140544KiB time=02:00:09.09 bitrate= 159.7kbits/s speed= 222x\n[STDOUT RAW] bitrate= 159.9kbits/s\n[STDOUT RAW] total_size=146276352\n[STDOUT RAW] out_time_us=7318345958\n[STDOUT RAW] out_time_ms=7318345958\n[STDOUT RAW] out_time=02:01:58.345958\n[STDOUT RAW] dup_frames=0\n[STDOUT RAW] drop_frames=0\n[STDOUT RAW] speed= 222x\n[STDOUT RAW] progress=continue\n[STDERR RAW] size=  142848KiB time=02:01:58.34 bitrate= 159.9kbits/s speed= 222x\n[STDOUT RAW] bitrate= 159.7kbits/s\n[STDOUT RAW] total_size=148635648\n[STDOUT RAW] out_time_us=7445017958\n[STDOUT RAW] out_time_ms=7445017958\n[STDOUT RAW] out_time=02:04:05.017958\n[STDOUT RAW] dup_frames=0\n[STDOUT RAW] drop_frames=0\n[STDOUT RAW] speed= 222x\n[STDOUT RAW] progress=continue\n[STDERR RAW] size=  145152KiB time=02:04:05.01 bitrate= 159.7kbits/s speed= 222x\n[STDOUT RAW] bitrate= 159.7kbits/s\n[STDOUT RAW] total_size=150994944\n[STDOUT RAW] out_time_us=7562977958\n[STDOUT RAW] out_time_ms=7562977958\n[STDOUT RAW] out_time=02:06:02.977958\n[STDOUT RAW] dup_frames=0\n[STDOUT RAW] drop_frames=0\n[STDOUT RAW] speed= 222x\n[STDOUT RAW] progress=continue\n[STDERR RAW] size=  147456KiB time=02:06:02.97 bitrate= 159.7kbits/s speed= 222x\n[STDOUT RAW] bitrate= 159.8kbits/s\n[STDOUT RAW] total_size=153354240\n[STDOUT RAW] out_time_us=7679089958\n[STDOUT RAW] out_time_ms=7679089958\n[STDOUT RAW] out_time=02:07:59.089958\n[STDOUT RAW] dup_frames=0\n[STDOUT RAW] drop_frames=0\n[STDOUT RAW] speed= 222x\n[STDOUT RAW] progress=continue\n[STDERR RAW] size=  149760KiB time=02:07:59.08 bitrate= 159.8kbits/s speed= 222x\n[STDOUT RAW] bitrate= 159.9kbits/s\n[STDOUT RAW] total_size=155713536\n[STDOUT RAW] out_time_us=7792729958\n[STDOUT RAW] out_time_ms=7792729958\n[STDOUT RAW] out_time=02:09:52.729958\n[STDOUT RAW] dup_frames=0\n[STDOUT RAW] drop_frames=0\n[STDOUT RAW] speed= 222x\n[STDOUT RAW] progress=continue\n[STDERR RAW] size=  152064KiB time=02:09:52.72 bitrate= 159.9kbits/s speed= 222x\n[STDOUT RAW] bitrate= 159.9kbits/s\n[STDOUT RAW] total_size=158334976\n[STDOUT RAW] out_time_us=7920097958\n[STDOUT RAW] out_time_ms=7920097958\n[STDOUT RAW] out_time=02:12:00.097958\n[STDOUT RAW] dup_frames=0\n[STDOUT RAW] drop_frames=0\n[STDOUT RAW] speed= 222x\n[STDOUT RAW] progress=continue\n[STDERR RAW] size=  154624KiB time=02:12:00.09 bitrate= 159.9kbits/s speed= 222x\n[STDOUT RAW] bitrate= 159.9kbits/s\n[STDOUT RAW] total_size=160694272\n[STDOUT RAW] out_time_us=8037601958\n[STDOUT RAW] out_time_ms=8037601958\n[STDOUT RAW] out_time=02:13:57.601958\n[STDOUT RAW] dup_frames=0\n[STDOUT RAW] drop_frames=0\n[STDOUT RAW] speed= 222x\n[STDOUT RAW] progress=continue\n[STDERR RAW] size=  156928KiB time=02:13:57.60 bitrate= 159.9kbits/s speed= 222x\n[STDOUT RAW] bitrate= 160.0kbits/s\n[STDOUT RAW] total_size=163053568\n[STDOUT RAW] out_time_us=8153473958\n[STDOUT RAW] out_time_ms=8153473958\n[STDOUT RAW] out_time=02:15:53.473958\n[STDOUT RAW] dup_frames=0\n[STDOUT RAW] drop_frames=0\n[STDOUT RAW] speed= 222x\n[STDOUT RAW] progress=continue\n[STDERR RAW] size=  159232KiB time=02:15:53.47 bitrate= 160.0kbits/s speed= 222x\n[STDOUT RAW] bitrate= 159.8kbits/s\n[STDOUT RAW] total_size=165412864\n[STDOUT RAW] out_time_us=8281321958\n[STDOUT RAW] out_time_ms=8281321958\n[STDOUT RAW] out_time=02:18:01.321958\n[STDOUT RAW] dup_frames=0\n[STDOUT RAW] drop_frames=0\n[STDOUT RAW] speed= 223x\n[STDOUT RAW] progress=continue\n[STDERR RAW] size=  161536KiB time=02:18:01.32 bitrate= 159.8kbits/s speed= 223x\n[STDOUT RAW] bitrate= 159.9kbits/s\n[STDOUT RAW] total_size=167772160\n[STDOUT RAW] out_time_us=8393305958\n[STDOUT RAW] out_time_ms=8393305958\n[STDOUT RAW] out_time=02:19:53.305958\n[STDOUT RAW] dup_frames=0\n[STDOUT RAW] drop_frames=0\n[STDOUT RAW] speed= 223x\n[STDOUT RAW] progress=continue\n[STDERR RAW] size=  163840KiB time=02:19:53.30 bitrate= 159.9kbits/s speed= 223x\n[STDOUT RAW] bitrate= 159.8kbits/s\n[STDOUT RAW] total_size=169869312\n[STDOUT RAW] out_time_us=8506705958\n[STDOUT RAW] out_time_ms=8506705958\n[STDOUT RAW] out_time=02:21:46.705958\n[STDOUT RAW] dup_frames=0\n[STDOUT RAW] drop_frames=0\n[STDOUT RAW] speed= 223x\n[STDOUT RAW] progress=continue\n[STDERR RAW] size=  165888KiB time=02:21:46.70 bitrate= 159.8kbits/s speed= 223x\n[STDOUT RAW] bitrate= 159.9kbits/s\n[STDOUT RAW] total_size=172490752\n[STDOUT RAW] out_time_us=8627497958\n[STDOUT RAW] out_time_ms=8627497958\n[STDOUT RAW] out_time=02:23:47.497958\n[STDOUT RAW] dup_frames=0\n[STDOUT RAW] drop_frames=0\n[STDOUT RAW] speed= 223x\n[STDOUT RAW] progress=continue\n[STDERR RAW] size=  168448KiB time=02:23:47.49 bitrate= 159.9kbits/s speed= 223x\n[STDOUT RAW] bitrate= 159.9kbits/s\n[STDOUT RAW] total_size=174587904\n[STDOUT RAW] out_time_us=8737153958\n[STDOUT RAW] out_time_ms=8737153958\n[STDOUT RAW] out_time=02:25:37.153958\n[STDOUT RAW] dup_frames=0\n[STDOUT RAW] drop_frames=0\n[STDOUT RAW] speed= 223x\n[STDOUT RAW] progress=continue\n[STDERR RAW] size=  170496KiB time=02:25:37.15 bitrate= 159.9kbits/s speed= 223x\n[STDOUT RAW] bitrate= 159.8kbits/s\n[STDOUT RAW] total_size=176947200\n[STDOUT RAW] out_time_us=8860609958\n[STDOUT RAW] out_time_ms=8860609958\n[STDOUT RAW] out_time=02:27:40.609958\n[STDOUT RAW] dup_frames=0\n[STDOUT RAW] drop_frames=0\n[STDOUT RAW] speed= 223x\n[STDOUT RAW] progress=continue\n[STDERR RAW] size=  172800KiB time=02:27:40.60 bitrate= 159.8kbits/s speed= 223x\n[STDOUT RAW] bitrate= 159.8kbits/s\n[STDOUT RAW] total_size=179306496\n[STDOUT RAW] out_time_us=8978569958\n[STDOUT RAW] out_time_ms=8978569958\n[STDOUT RAW] out_time=02:29:38.569958\n[STDOUT RAW] dup_frames=0\n[STDOUT RAW] drop_frames=0\n[STDOUT RAW] speed= 223x\n[STDOUT RAW] progress=continue\n[STDERR RAW] size=  175104KiB time=02:29:38.56 bitrate= 159.8kbits/s speed= 223x\n[STDOUT RAW] bitrate= 159.9kbits/s\n[STDOUT RAW] total_size=181927936\n[STDOUT RAW] out_time_us=9102817958\n[STDOUT RAW] out_time_ms=9102817958\n[STDOUT RAW] out_time=02:31:42.817958\n[STDOUT RAW] dup_frames=0\n[STDOUT RAW] drop_frames=0\n[STDOUT RAW] speed= 223x\n[STDOUT RAW] progress=continue\n[STDERR RAW] size=  177664KiB time=02:31:42.81 bitrate= 159.9kbits/s speed= 223x\n[STDOUT RAW] bitrate= 159.9kbits/s\n[STDOUT RAW] total_size=184287232\n[STDOUT RAW] out_time_us=9218329958\n[STDOUT RAW] out_time_ms=9218329958\n[STDOUT RAW] out_time=02:33:38.329958\n[STDOUT RAW] dup_frames=0\n[STDOUT RAW] drop_frames=0\n[STDOUT RAW] speed= 223x\n[STDOUT RAW] progress=continue\n[STDERR RAW] size=  179968KiB time=02:33:38.32 bitrate= 159.9kbits/s speed= 223x\n[STDOUT RAW] bitrate= 160.0kbits/s\n[STDOUT RAW] total_size=186646528\n[STDOUT RAW] out_time_us=9335065958\n[STDOUT RAW] out_time_ms=9335065958\n[STDOUT RAW] out_time=02:35:35.065958\n[STDOUT RAW] dup_frames=0\n[STDOUT RAW] drop_frames=0\n[STDOUT RAW] speed= 223x\n[STDOUT RAW] progress=continue\n[STDOUT RAW] bitrate= 159.9kbits/s\n[STDERR RAW] size=  182272KiB time=02:35:35.06 bitrate= 160.0kbits/s speed= 223x\n[STDOUT RAW] total_size=188743680\n[STDOUT RAW] out_time_us=9445993958\n[STDOUT RAW] out_time_ms=9445993958\n[STDOUT RAW] out_time=02:37:25.993958\n[STDOUT RAW] dup_frames=0\n[STDOUT RAW] drop_frames=0\n[STDOUT RAW] speed= 223x\n[STDOUT RAW] progress=continue\n[STDOUT RAW] bitrate= 159.8kbits/s\n[STDERR RAW] size=  184320KiB time=02:37:25.99 bitrate= 159.9kbits/s speed= 223x\n[STDOUT RAW] total_size=191102976\n[STDOUT RAW] out_time_us=9565681958\n[STDOUT RAW] out_time_ms=9565681958\n[STDOUT RAW] out_time=02:39:25.681958\n[STDOUT RAW] dup_frames=0\n[STDOUT RAW] drop_frames=0\n[STDOUT RAW] speed= 223x\n[STDOUT RAW] progress=continue\n[STDERR RAW] size=  186624KiB time=02:39:25.68 bitrate= 159.8kbits/s speed= 223x\n[STDOUT RAW] bitrate= 159.9kbits/s\n[STDOUT RAW] total_size=193462272\n[STDOUT RAW] out_time_us=9677545958\n[STDOUT RAW] out_time_ms=9677545958\n[STDOUT RAW] out_time=02:41:17.545958\n[STDOUT RAW] dup_frames=0\n[STDOUT RAW] drop_frames=0\n[STDOUT RAW] speed= 223x\n[STDOUT RAW] progress=continue\n[STDERR RAW] size=  188928KiB time=02:41:17.54 bitrate= 159.9kbits/s speed= 223x\n[STDOUT RAW] bitrate= 159.8kbits/s\n[STDOUT RAW] total_size=195559424\n[STDOUT RAW] out_time_us=9789817958\n[STDOUT RAW] out_time_ms=9789817958\n[STDOUT RAW] out_time=02:43:09.817958\n[STDOUT RAW] dup_frames=0\n[STDOUT RAW] drop_frames=0\n[STDOUT RAW] speed= 223x\n[STDOUT RAW] progress=continue\n[STDERR RAW] size=  190976KiB time=02:43:09.81 bitrate= 159.8kbits/s speed= 223x\n[STDOUT RAW] bitrate= 159.9kbits/s\n[STDOUT RAW] total_size=197918720\n[STDOUT RAW] out_time_us=9899545958\n[STDOUT RAW] out_time_ms=9899545958\n[STDOUT RAW] out_time=02:44:59.545958\n[STDOUT RAW] dup_frames=0\n[STDOUT RAW] drop_frames=0\n[STDOUT RAW] speed= 223x\n[STDOUT RAW] progress=continue\n[STDERR RAW] size=  193280KiB time=02:44:59.54 bitrate= 159.9kbits/s speed= 223x\n[STDOUT RAW] bitrate= 159.9kbits/s\n[STDOUT RAW] total_size=200278016\n[STDOUT RAW] out_time_us=10018633958\n[STDOUT RAW] out_time_ms=10018633958\n[STDOUT RAW] out_time=02:46:58.633958\n[STDOUT RAW] dup_frames=0\n[STDOUT RAW] drop_frames=0\n[STDOUT RAW] speed= 223x\n[STDOUT RAW] progress=continue\n[STDERR RAW] size=  195584KiB time=02:46:58.63 bitrate= 159.9kbits/s speed= 223x\n[STDOUT RAW] bitrate= 159.8kbits/s\n[STDOUT RAW] total_size=202375168\n[STDOUT RAW] out_time_us=10131985958\n[STDOUT RAW] out_time_ms=10131985958\n[STDOUT RAW] out_time=02:48:51.985958\n[STDOUT RAW] dup_frames=0\n[STDOUT RAW] drop_frames=0\n[STDOUT RAW] speed= 223x\n[STDOUT RAW] progress=continue\n[STDERR RAW] size=  197632KiB time=02:48:51.98 bitrate= 159.8kbits/s speed= 223x\n[STDOUT RAW] bitrate= 159.8kbits/s\n[STDOUT RAW] total_size=204472320\n[STDOUT RAW] out_time_us=10234801958\n[STDOUT RAW] out_time_ms=10234801958\n[STDOUT RAW] out_time=02:50:34.801958\n[STDOUT RAW] dup_frames=0\n[STDOUT RAW] drop_frames=0\n[STDOUT RAW] speed= 223x\n[STDOUT RAW] progress=continue\n[STDERR RAW] size=  199680KiB time=02:50:34.80 bitrate= 159.8kbits/s speed= 223x\n[STDOUT RAW] bitrate= 159.8kbits/s\n[STDOUT RAW] total_size=206831616\n[STDOUT RAW] out_time_us=10354825958\n[STDOUT RAW] out_time_ms=10354825958\n[STDOUT RAW] out_time=02:52:34.825958\n[STDOUT RAW] dup_frames=0\n[STDOUT RAW] drop_frames=0\n[STDOUT RAW] speed= 223x\n[STDOUT RAW] progress=continue\n[STDOUT RAW] bitrate= 159.8kbits/s\n[STDOUT RAW] total_size=208928768\n[STDOUT RAW] out_time_us=10459681958\n[STDOUT RAW] out_time_ms=10459681958\n[STDOUT RAW] out_time=02:54:19.681958\n[STDOUT RAW] dup_frames=0\n[STDERR RAW] size=  201984KiB time=02:52:34.82 bitrate= 159.8kbits/s speed= 223x\n[STDOUT RAW] drop_frames=0\n[STDOUT RAW] speed= 223x\n[STDOUT RAW] progress=continue\n[STDERR RAW] size=  204032KiB time=02:54:19.68 bitrate= 159.8kbits/s speed= 223x\n[STDOUT RAW] bitrate= 160.0kbits/s\n[STDOUT RAW] total_size=211550208\n[STDOUT RAW] out_time_us=10577665958\n[STDOUT RAW] out_time_ms=10577665958\n[STDOUT RAW] out_time=02:56:17.665958\n[STDOUT RAW] dup_frames=0\n[STDOUT RAW] drop_frames=0\n[STDOUT RAW] speed= 223x\n[STDOUT RAW] progress=continue\n[STDERR RAW] size=  206592KiB time=02:56:17.66 bitrate= 160.0kbits/s speed= 223x\n[STDOUT RAW] bitrate= 159.9kbits/s\n[STDOUT RAW] total_size=213909504\n[STDOUT RAW] out_time_us=10703065958\n[STDOUT RAW] out_time_ms=10703065958\n[STDOUT RAW] out_time=02:58:23.065958\n[STDOUT RAW] dup_frames=0\n[STDOUT RAW] drop_frames=0\n[STDOUT RAW] speed= 223x\n[STDOUT RAW] progress=continue\n[STDERR RAW] size=  208896KiB time=02:58:23.06 bitrate= 159.9kbits/s speed= 223x\n[STDOUT RAW] bitrate= 159.9kbits/s\n[STDOUT RAW] total_size=216006656\n[STDOUT RAW] out_time_us=10804921958\n[STDOUT RAW] out_time_ms=10804921958\n[STDOUT RAW] out_time=03:00:04.921958\n[STDOUT RAW] dup_frames=0\n[STDOUT RAW] drop_frames=0\n[STDOUT RAW] speed= 223x\n[STDOUT RAW] progress=continue\n[STDERR RAW] size=  210944KiB time=03:00:04.92 bitrate= 159.9kbits/s speed= 223x\n[STDOUT RAW] bitrate= 160.0kbits/s\n[STDOUT RAW] total_size=218365952\n[STDOUT RAW] out_time_us=10921009958\n[STDOUT RAW] out_time_ms=10921009958\n[STDOUT RAW] out_time=03:02:01.009958\n[STDOUT RAW] dup_frames=0\n[STDOUT RAW] drop_frames=0\n[STDOUT RAW] speed= 223x\n[STDOUT RAW] progress=continue\n[STDERR RAW] size=  213248KiB time=03:02:01.00 bitrate= 160.0kbits/s speed= 223x\n[STDOUT RAW] bitrate= 159.9kbits/s\n[STDOUT RAW] total_size=220725248\n[STDOUT RAW] out_time_us=11040385958\n[STDOUT RAW] out_time_ms=11040385958\n[STDOUT RAW] out_time=03:04:00.385958\n[STDOUT RAW] dup_frames=0\n[STDOUT RAW] drop_frames=0\n[STDOUT RAW] speed= 223x\n[STDOUT RAW] progress=continue\n[STDERR RAW] size=  215552KiB time=03:04:00.38 bitrate= 159.9kbits/s speed= 223x\n[STDOUT RAW] bitrate= 159.9kbits/s\n[STDOUT RAW] total_size=222822400\n[STDOUT RAW] out_time_us=11145649958\n[STDOUT RAW] out_time_ms=11145649958\n[STDOUT RAW] out_time=03:05:45.649958\n[STDOUT RAW] dup_frames=0\n[STDOUT RAW] drop_frames=0\n[STDOUT RAW] speed= 223x\n[STDOUT RAW] progress=continue\n[STDERR RAW] size=  217600KiB time=03:05:45.64 bitrate= 159.9kbits/s speed= 223x\n[STDOUT RAW] bitrate= 159.9kbits/s\n[STDOUT RAW] total_size=225181696\n[STDOUT RAW] out_time_us=11268985958\n[STDOUT RAW] out_time_ms=11268985958\n[STDOUT RAW] out_time=03:07:48.985958\n[STDOUT RAW] dup_frames=0\n[STDOUT RAW] drop_frames=0\n[STDOUT RAW] speed= 223x\n[STDOUT RAW] progress=continue\n[STDERR RAW] size=  219904KiB time=03:07:48.98 bitrate= 159.9kbits/s speed= 223x\n[STDOUT RAW] bitrate= 160.0kbits/s\n[STDOUT RAW] total_size=227540992\n[STDOUT RAW] out_time_us=11377249958\n[STDOUT RAW] out_time_ms=11377249958\n[STDOUT RAW] out_time=03:09:37.249958\n[STDOUT RAW] dup_frames=0\n[STDOUT RAW] drop_frames=0\n[STDOUT RAW] speed= 223x\n[STDOUT RAW] progress=continue\n[STDERR RAW] size=  222208KiB time=03:09:37.24 bitrate= 160.0kbits/s speed= 223x\n[STDERR RAW] size=  223018KiB time=03:10:18.44 bitrate= 160.0kbits/s speed= 223x\n[STDOUT RAW] bitrate= 160.0kbits/s\n[STDOUT RAW] total_size=228370604\n[STDOUT RAW] out_time_us=11418446000\n[STDOUT RAW] out_time_ms=11418446000\n[STDOUT RAW] out_time=03:10:18.446000\n[STDOUT RAW] dup_frames=0\n[STDOUT RAW] drop_frames=0\n[STDOUT RAW] speed= 223x\n[STDOUT RAW] progress=end\n[ConversionWorker] STDERR pipe closed signal received.\n[ConversionWorker] Detected 'progress=end' for t.wav\n[ConversionWorker] STDOUT pipe closed signal received.\n[ConversionWorker] Process finished and both stream pipes closed. Exiting loop.\n[ConversionWorker] Waiting for reader threads to join...\n[ConversionWorker] FFmpeg process ended. Return code: 0\n[ConversionWorker] Closing FFmpeg log file.\n